<?xml version="1.0" encoding="utf-8"?>
<!-- Designed by Vexels.com - 2020 All Rights Reserved - https://vexels.com/terms-and-conditions/  -->
<svg version="1.1" id="Capa_1" xmlns="http://www.w3.org/2000/svg" xmlns:xlink="http://www.w3.org/1999/xlink" x="0px"
	y="0px" viewBox="0 0 1200 1200" enable-background="new 0 0 1200 1200" xml:space="preserve">
	<g>
		<path fill="gray" d="M190.243,784.216c0,6.349,5.146,11.493,11.493,11.493h855.003c6.346,0,11.495-5.144,11.495-11.493V108.052
		c0-6.348-5.148-11.492-11.495-11.492H201.736c-6.346,0-11.493,5.144-11.493,11.492v187.905H61.493
		c-6.345,0-11.493,5.144-11.493,11.493c0,6.349,5.148,11.493,11.493,11.493h128.75v83.649h-78.176
		c-6.345,0-11.493,5.145-11.493,11.493s5.148,11.493,11.493,11.493h78.176v83.649h-78.176c-6.345,0-11.493,5.144-11.493,11.492
		c0,6.349,5.148,11.493,11.493,11.493h78.176v83.649H61.493c-6.345,0-11.493,5.144-11.493,11.493
		c0,6.348,5.148,11.493,11.493,11.493h128.75V784.216z M213.228,638.848h107.717c6.345,0,11.493-5.144,11.493-11.493
		c0-6.349-5.148-11.493-11.493-11.493H213.228v-83.649h107.717c6.345,0,11.493-5.144,11.493-11.493
		c0-6.349-5.148-11.492-11.493-11.492H213.228v-83.649h107.717c6.345,0,11.493-5.145,11.493-11.493s-5.148-11.493-11.493-11.493
		H213.228v-83.649h107.717c6.345,0,11.493-5.145,11.493-11.493c0-6.349-5.148-11.493-11.493-11.493H213.228V119.545h832.018v653.178
		H213.228V638.848z" />
		<path fill="gray" d="M937.529,969.087H320.945c-6.346,0-11.493,5.145-11.493,11.493s5.146,11.493,11.493,11.493h616.584
		c6.346,0,11.494-5.145,11.494-11.493S943.875,969.087,937.529,969.087z" />
		<path fill="gray" d="M1148.077,1064.034l-49.123-128.094c-19.244-50.18-69.621-89.485-114.69-89.485H274.21
		c-45.066,0-95.446,39.305-114.69,89.485l-49.123,128.099c-3.419,8.911-2.23,18.931,3.18,26.798
		c5.433,7.89,14.397,12.604,23.989,12.604h983.343c9.592,0,18.554-4.71,23.98-12.604
		C1150.307,1082.969,1151.498,1072.95,1148.077,1064.034z M1125.952,1077.814c-0.547,0.793-2.133,2.641-5.042,2.641H137.567
		c-2.911,0-4.497-1.848-5.042-2.645c-0.674-0.969-1.648-2.982-0.667-5.54L180.98,944.17c15.802-41.205,57.628-74.73,93.23-74.73
		h710.055c35.602,0,77.428,33.525,93.23,74.73l49.123,128.091C1127.597,1074.824,1126.626,1076.841,1125.952,1077.814z" />
		<path fill="gray" d="M854.468,297.363H472.568c-1.478,0-2.881,0.303-4.178,0.812l-6.065-55.313
		c-0.642-5.829-5.559-10.24-11.425-10.24h-46.893c-6.345,0-11.493,5.144-11.493,11.493c0,6.348,5.148,11.493,11.493,11.493h36.589
		l6.458,58.822l34.919,249.582c0.795,5.676,5.651,9.9,11.381,9.9h312.069c6.344,0,11.493-5.145,11.493-11.493
		c0-6.349-5.148-11.493-11.493-11.493H503.35l-11.236-80.289c1.441,0.645,2.984,1.073,4.644,1.073c0.329,0,0.665-0.015,1.002-0.041
		l320.119-27.535c4.677-0.404,8.642-3.618,10.011-8.115l37.577-123.826c1.055-3.483,0.405-7.258-1.766-10.183
		C861.531,299.088,858.105,297.363,854.468,297.363z M808.152,421.901l-312.368,26.865c-2.435,0.211-4.617,1.178-6.36,2.635
		l-18.359-131.203c0.496,0.065,0.988,0.152,1.503,0.152h366.405L808.152,421.901z" />
		<path fill="gray" d="M506.831,622.408c-18.924,0-34.264,15.286-34.264,34.142c0,18.857,15.34,34.142,34.264,34.142
		c18.922,0,34.262-15.285,34.262-34.142C541.094,637.694,525.753,622.408,506.831,622.408z" />
		<path fill="gray" d="M782.274,622.408c-18.922,0-34.262,15.286-34.262,34.142c0,18.857,15.34,34.142,34.262,34.142
		c18.924,0,34.264-15.285,34.264-34.142C816.537,637.694,801.197,622.408,782.274,622.408z" />
	</g>
</svg>
